<svg xmlns="http://www.w3.org/2000/svg" viewBox="0 0 539.13 501.99"><defs><style>.cls-1{fill:#c0fd45;}</style></defs><g id="Layer_2" data-name="Layer 2"><g id="Layer_1-2" data-name="Layer 1"><path class="cls-1" d="M87.78,186.57c-.23.55-.45,1.1-.67,1.66C87.33,187.67,87.56,187.12,87.78,186.57Z"/><path class="cls-1" d="M416.65,369.32c29.53-31.75,47.42-73.12,47.42-118.33,0-44.79-17.58-85.81-46.63-117.44v0c28.63,31.69,45.91,72.67,45.91,117.44C463.34,296.2,445.75,337.52,416.65,369.32Z"/><path class="cls-1" d="M356.62,13.51,342.2,82.46a194.56,194.56,0,0,1,75.23,51.12v0c29.05,31.63,46.63,72.65,46.63,117.44,0,45.21-17.89,86.58-47.42,118.33C381.3,407.94,329,432.51,270.49,432.84c-6.1,29.28-11.46,55.07-14.27,68.83,4.42.2,8.87.32,13.35.32,148.63,0,269.56-112.6,269.56-251C539.13,141,462.65,47.3,356.62,13.51Z"/><path class="cls-1" d="M87.78,186.57C115.54,118,186.33,69.18,269.28,69.18c1.1,0,2.2,0,3.29,0,5.82-28.55,11-54.12,14-68.67-5.63-.33-11.29-.55-17-.55C120.93,0,0,112.6,0,251,0,362.23,78.14,456.74,186,489.57l11.85-56.64.11,0,1.36-7.08,1-4.64c-41.09-14.61-75.42-41.52-98-77.35a174.71,174.71,0,0,1-21.66-50,169.32,169.32,0,0,1,6.32-105.15c.07-.17.13-.34.2-.5C87.33,187.67,87.55,187.12,87.78,186.57Z"/><path class="cls-1" d="M420.28,274.82c5.91-25.75,2.5-59.32-8.86-84.82L222.53,105.52c-7.48,2.31-24,7.51-41.19,18.67l-11.7,142.58L163,352l-.07.05-.4,8.07c20.38,17.94,45.56,28.46,71.37,34.3Zm-173-77.6,96.41,41.87L239,304.54Z"/></g></g></svg>