<?xml version="1.0" encoding="utf-8"?>
<!-- Generator: Adobe Illustrator 25.4.1, SVG Export Plug-In . SVG Version: 6.00 Build 0)  -->
<svg version="1.1" id="Layer_1" xmlns="http://www.w3.org/2000/svg" xmlns:xlink="http://www.w3.org/1999/xlink" x="0px" y="0px"
	 viewBox="0 0 509 509" style="enable-background:new 0 0 509 509;" xml:space="preserve">
<style type="text/css">
	.st0{fill:#C0FD45;}
</style>
<g id="Layer_2_00000044874230697902072110000012472467444578245764_">
	<g id="Layer_1-2">
		<path class="st0" d="M326.2,17.6L311.8,87c28.8,10.9,54.6,28.5,75.4,51.4l0,0c29.1,31.8,46.7,73.1,46.7,118.1
			c0,45.5-17.9,87.1-47.5,119c-35.4,38.8-87.8,63.5-146.4,63.9c-6.1,29.5-11.5,55.4-14.3,69.2c4.4,0.2,8.9,0.3,13.4,0.3
			c148.9,0,270-113.3,270-252.5C509,145.9,432.4,51.6,326.2,17.6z"/>
		<path class="st0" d="M87.9,187.7c27.8-69,98.7-118.1,181.8-118.1c1.1,0,2.2,0,3.3,0c5.8-28.7,11-54.4,14-69.1
			C281.4,0.2,275.7,0,270,0C121.1,0,0,113.3,0,252.5c0,111.9,78.3,207,186.3,240l11.9-57h0.1l1.4-7.1l1-4.7
			c-41.2-14.7-75.5-41.8-98.2-77.8c-9.8-15.5-17.1-32.5-21.7-50.3c-9.1-35-6.9-72.1,6.3-105.8c0.1-0.2,0.1-0.3,0.2-0.5
			C87.5,188.8,87.7,188.3,87.9,187.7z"/>
		<path class="st0" d="M405,276.5c5.9-25.9,2.5-59.7-8.9-85.3l-189.2-85c-7.5,2.3-24,7.6-41.3,18.8l-11.7,143.4l-6.7,85.7l-0.1,0.1
			l-0.4,8.1c20.4,18,45.6,28.6,71.5,34.5L405,276.5z M231.7,198.4l96.6,42.1l-104.9,65.8L231.7,198.4z"/>
	</g>
</g>
</svg>
