<?xml version="1.0" encoding="utf-8"?>
<!-- Generator: Adobe Illustrator 25.4.1, SVG Export Plug-In . SVG Version: 6.00 Build 0)  -->
<svg version="1.1" id="Layer_1" xmlns="http://www.w3.org/2000/svg" xmlns:xlink="http://www.w3.org/1999/xlink" x="0px" y="0px"
	 viewBox="0 0 539.1 502" style="enable-background:new 0 0 539.1 502;" xml:space="preserve">
<style type="text/css">
	.st0{fill:#C0FD45;}
</style>
<g id="Layer_2_00000081626834232201495400000000409656869190041000_">
	<g id="Layer_1-2">
		<path class="st0" d="M356.6,13.5l-14.4,68.9c28.8,10.9,54.5,28.4,75.2,51.1l0,0c29,31.6,46.6,72.7,46.6,117.4
			c0,45.2-17.9,86.6-47.4,118.3c-35.3,38.6-87.6,63.2-146.2,63.5c-6.1,29.3-11.5,55.1-14.3,68.8c4.4,0.2,8.9,0.3,13.4,0.3
			c148.6,0,269.6-112.6,269.6-251C539.1,141,462.6,47.3,356.6,13.5z"/>
		<path class="st0" d="M87.8,186.6C115.5,118,186.3,69.2,269.3,69.2c1.1,0,2.2,0,3.3,0c5.8-28.5,11-54.1,14-68.7
			c-5.6-0.3-11.3-0.6-17-0.6C120.9,0,0,112.6,0,251c0,111.2,78.1,205.7,186,238.6l11.9-56.6h0.1l1.4-7.1l1-4.6
			c-41.1-14.6-75.4-41.5-98-77.4c-9.8-15.4-17.1-32.3-21.7-50c-9.1-34.8-6.9-71.7,6.3-105.1c0.1-0.2,0.1-0.3,0.2-0.5
			C87.3,187.7,87.6,187.1,87.8,186.6z"/>
		<path class="st0" d="M420.3,274.8c5.9-25.8,2.5-59.3-8.9-84.8l-188.9-84.5c-7.5,2.3-24,7.5-41.2,18.7l-11.7,142.6L163,352l-0.1,0
			l-0.4,8.1c20.4,17.9,45.6,28.5,71.4,34.3L420.3,274.8z M247.3,197.2l96.4,41.9L239,304.5L247.3,197.2z"/>
	</g>
</g>
</svg>
