<?xml version="1.0" encoding="UTF-8" standalone="no"?>
<svg
   xmlns:dc="http://purl.org/dc/elements/1.1/"
   xmlns:cc="http://creativecommons.org/ns#"
   xmlns:rdf="http://www.w3.org/1999/02/22-rdf-syntax-ns#"
   xmlns:svg="http://www.w3.org/2000/svg"
   xmlns="http://www.w3.org/2000/svg"
   viewBox="0 0 1066.6667 193.716"
   height="193.716"
   width="1066.6667"
   xml:space="preserve"
   id="svg2"
   version="1.1"><metadata
     id="metadata8"><rdf:RDF><cc:Work
         rdf:about=""><dc:format>image/svg+xml</dc:format><dc:type
           rdf:resource="http://purl.org/dc/dcmitype/StillImage" /></cc:Work></rdf:RDF></metadata><defs
     id="defs6"><clipPath
       id="clipPath18"
       clipPathUnits="userSpaceOnUse"><path
         id="path16"
         d="M 0,145.287 H 800 V 0 H 0 Z" /></clipPath></defs><g
     transform="matrix(1.3333333,0,0,-1.3333333,0,193.716)"
     id="g10"><g
       id="g12"><g
         clip-path="url(#clipPath18)"
         id="g14"><g
           transform="translate(103.2142,141.3778)"
           id="g20"><path
             id="path22"
             fill="#122540"
             d="m 0,0 -4.197,-20.069 c 8.645,-3.288 16.036,-8.441 21.771,-14.814 l 0.029,0.138 c 8.409,-9.153 13.498,-21.024 13.498,-33.989 0,-20.189 -12.331,-37.738 -30.34,-46.491 l 15.17,72.494 c -5.144,7.156 -12.416,13.011 -21.239,16.644 l -5.575,-30.819 -22.661,-4.791 0.663,3.132 c 0,0.509 9.792,48.518 12.608,62.315 -1.63,0.095 -3.267,0.159 -4.922,0.159 -43.02,0 -78.019,-32.587 -78.019,-72.643 0,-32.194 22.617,-59.548 53.827,-69.051 l 3.429,16.393 c 0.009,-0.003 0.024,-0.006 0.033,-0.009 l 0.395,2.051 0.281,1.343 c -11.892,4.229 -21.828,12.017 -28.372,22.385 -2.89,4.579 -4.984,9.452 -6.269,14.476 -1.043,3.981 -1.601,8.136 -1.601,12.412 0,20.632 12.873,38.51 31.529,47.058 l -15.503,-74.698 c 5.442,-7.005 12.791,-12.382 21.344,-15.652 l 6.046,30.405 22.379,4.79 c 0,-0.515 -10.685,-51.341 -13.362,-64.456 1.28,-0.058 2.568,-0.091 3.863,-0.091 43.02,0 78.019,32.588 78.019,72.644 C 52.824,-36.887 30.69,-9.78 0,0" /></g><g
           transform="translate(253.3432,46.6792)"
           id="g24"><path
             id="path26"
             fill="#122540"
             d="M 0,0 V 51.929 H -12.304 V 31.92 H -38.292 V 51.929 H -50.596 V 0 h 12.304 v 21.107 h 25.988 l 0,-21.107 z" /></g><g
           transform="translate(314.7181,98.6081)"
           id="g28"><path
             id="path30"
             fill="#122540"
             d="M 0,0 -12.879,-19.477 -26.235,0 h -14.911 l 21.208,-30.807 v -21.122 h 12.304 v 21.122 L 13.575,0 Z" /></g><g
           transform="translate(360.826,74.5975)"
           id="g32"><path
             id="path34"
             fill="#122540"
             d="m 0,0 v 13.354 h 17.114 c 6.146,0 8.325,-1.747 8.325,-6.676 C 25.439,1.685 23.338,0 17.114,0 Z m 37.743,6.678 c 0,12.635 -5.315,17.333 -19.609,17.333 H -12.303 V -27.918 H 0 v 17.263 h 18.134 c 14.294,0 19.609,4.698 19.609,17.333" /></g><g
           transform="translate(463.8447,67.7861)"
           id="g36"><path
             id="path38"
             fill="#122540"
             d="m 0,0 v 10.42 h -28.798 v 9.745 H 5.493 V 30.822 H -41.101 V -21.107 H 6.12 V -10.45 H -28.798 V 0 Z" /></g><g
           transform="translate(508.0128,87.9515)"
           id="g40"><path
             id="path42"
             fill="#122540"
             d="m 0,0 h 17.27 c 5.726,0 7.855,-1.725 7.855,-6.363 0,-4.698 -2.056,-6.364 -7.855,-6.364 H 0 Z m 11.562,-23.352 13.637,-17.92 h 15.19 l -14.423,18.636 0.494,0.11 c 7.791,1.739 10.969,6.445 10.969,16.242 0,12.508 -5.049,16.941 -19.295,16.941 H -12.303 V -41.272 H 0 v 18.047 h 11.466 z" /></g><g
           transform="translate(598.2829,88.1876)"
           id="g44"><path
             id="path46"
             fill="#122540"
             d="m 0,0 -30.079,-32.148 v -9.36 h 47.691 v 10.42 H -13.095 L 16.984,1.06 v 9.36 H -28.901 V 0 Z" /></g><g
           transform="translate(665.5667,56.394)"
           id="g48"><path
             id="path50"
             fill="#122540"
             d="m 0,0 c -12.18,0 -15.701,3.645 -15.701,16.251 0,12.604 3.521,16.248 15.701,16.248 12.18,0 15.702,-3.644 15.702,-16.248 C 15.702,3.645 12.18,0 0,0 m 0,43.156 c -20.907,0 -28.318,-7.041 -28.318,-26.905 0,-19.866 7.411,-26.908 28.318,-26.908 20.908,0 28.318,7.042 28.318,26.908 0,19.864 -7.41,26.905 -28.318,26.905" /></g><g
           transform="translate(770.4581,46.6792)"
           id="g52"><path
             id="path54"
             fill="#122540"
             d="M 0,0 V 51.929 H -11.753 V 18.683 L -35.467,51.929 H -50.986 V 0 h 11.754 V 38.19 L -11.987,0 Z" /></g><g
           transform="translate(782.6896,98.5186)"
           id="g56"></g></g></g></g></svg>