<?xml version="1.0" encoding="UTF-8" standalone="no"?>
<!DOCTYPE svg PUBLIC "-//W3C//DTD SVG 1.1//EN" "http://www.w3.org/Graphics/SVG/1.1/DTD/svg11.dtd">
<svg xmlns="http://www.w3.org/2000/svg" xmlns:xlink="http://www.w3.org/1999/xlink" version="1.1" width="539.131pt" height="501.986pt" viewBox="0 0 539.131 501.986">
<g enable-background="new">
<g id="Layer-1" data-name="Layer 1">
<clipPath id="cp0">
<path transform="matrix(1,0,0,-1,0,501.986)" d="M 0 501.986 L 539.13 501.986 L 539.13 0 L 0 0 Z "/>
</clipPath>
<g clip-path="url(#cp0)">
<path transform="matrix(1,0,0,-1,356.618,13.507904)" d="M 0 0 L -14.503 -69.34 C 15.368 -80.702 40.905 -98.505 60.72 -120.527 L 60.82 -120.047 C 89.876 -151.674 107.456 -192.688 107.456 -237.484 C 107.456 -307.242 64.853 -367.873 2.628 -398.116 L 55.044 -147.642 C 37.271 -122.917 12.143 -102.688 -18.34 -90.135 L -37.603 -196.618 L -115.9 -213.17 L -113.607 -202.351 C -113.607 -200.592 -79.777 -34.714 -70.047 12.956 C -75.677 13.284 -81.334 13.508 -87.051 13.508 C -235.691 13.508 -356.618 -99.088 -356.618 -237.484 C -356.618 -348.719 -278.474 -443.231 -170.637 -476.066 L -158.789 -419.426 C -158.759 -419.436 -158.708 -419.444 -158.678 -419.456 L -157.314 -412.368 L -156.343 -407.729 C -197.43 -393.118 -231.759 -366.209 -254.368 -330.387 C -264.354 -314.565 -271.589 -297.727 -276.03 -280.368 C -279.635 -266.616 -281.563 -252.257 -281.563 -237.484 C -281.563 -166.199 -237.085 -104.427 -172.626 -74.895 L -226.191 -332.986 C -207.386 -357.189 -181.994 -375.765 -152.443 -387.065 L -131.552 -282.012 L -54.232 -265.46 C -54.232 -267.24 -91.149 -442.849 -100.399 -488.163 C -95.976 -488.365 -91.527 -488.478 -87.051 -488.478 C 61.587 -488.478 182.512 -375.883 182.512 -237.484 C 182.512 -127.448 106.036 -33.792 0 0 " fill="#000000" fill-opacity="0.05" />
</g>
</g>
</g>
</svg>
